<svg xmlns="http://www.w3.org/2000/svg" viewBox="0 0 106.57 161.35"><defs><style>.cls-1{fill:#070707;}</style></defs><title>Asset 15</title><g id="Layer_2" data-name="Layer 2"><g id="Layer_1-2" data-name="Layer 1"><path class="cls-1" d="M106.35,120.15v0c0,.83-.12,1.63-.22,2.39,0,.32-.09.61-.09.61,0,.23-.06.43-.09.56s0,.28-.06.42-.09.48-.14.72a.59.59,0,0,1,0,.23c0,.26-.1.52-.15.76s-.1.49-.15.72a1.89,1.89,0,0,1,0,.23c0,.12-.07.25-.1.37-.13.49-.25.94-.36,1.33l-.05.16c0,.1,0,.21-.09.31s-.11.32-.17.47a37.54,37.54,0,0,1-13,19.66,48.69,48.69,0,0,1-6.72,4.6c-16.87,10.3-38.33,10.3-54.69-1-10.22-6.16-16.36-16.36-18.4-27.61-1-11.24,2-21.46,4.37-31.66.64-3,1.3-6,1.93-9.09,4.44-21.27,7.89-43.05-.64-63.87a53.88,53.88,0,0,0-4.92-9.32A42.27,42.27,0,0,0,6.87,4,14.67,14.67,0,0,0,0,.38a22.45,22.45,0,0,1,7-.2,26.43,26.43,0,0,1,7.39,2.24,68.79,68.79,0,0,1,18,11,63.79,63.79,0,0,1,7.21,7.12c16.33,17.71,15.23,40,10.22,61.2Q48.56,87,47,92.23c-3.52,9.4-6.59,18.6.56,26.78,5.06,5.79,18,5.64,23.51-1,2.64-3.2,4.31-9,1.48-13.7S63.19,97.48,57,99.77a22.77,22.77,0,0,1-4-12,16.17,16.17,0,0,1,1.21-7.84c4.09-9.2,14.31-14.31,22.49-19.42-5.11,3.06-13.29,9.2-9.2,15.33C72.56,80.92,80.74,83,87,86.83a33.82,33.82,0,0,1,4.53,2.4,31.56,31.56,0,0,1,3.64,2.68,28.83,28.83,0,0,1,2.08,2,37.91,37.91,0,0,1,7.14,11A31.72,31.72,0,0,1,106.35,120.15Z"/></g></g></svg>