<svg width="171" height="176" viewBox="0 0 171 176" fill="none" xmlns="http://www.w3.org/2000/svg">
<path fill-rule="evenodd" clip-rule="evenodd" d="M135.437 126.639H170.102V149.686H170.094C169.509 164.206 137.001 175.912 96.9853 175.912C56.9696 175.912 24.4619 164.206 23.8772 149.686H23.8694V149.357C23.8692 149.334 23.8691 149.311 23.8691 149.288C23.8691 149.265 23.8692 149.242 23.8694 149.219V126.639H58.5339C69.7049 124.119 82.8786 122.664 96.9853 122.664C111.092 122.664 124.266 124.119 135.437 126.639Z" fill="url(#paint0_linear)"/>
<ellipse cx="96.9853" cy="127.036" rx="73.1162" ry="26.6238" fill="url(#paint1_linear)"/>
<ellipse cx="96.9853" cy="127.036" rx="73.1162" ry="26.6238" fill="url(#paint2_linear)"/>
<g filter="url(#filter0_i)">
<ellipse cx="97.3827" cy="127.037" rx="64.7714" ry="22.6501" fill="#EEB953"/>
</g>
<g filter="url(#filter1_i)">
<path d="M91.8972 144.774C91.6655 144.822 91.4352 144.836 91.2172 144.853C91.1279 144.872 91.0417 144.864 91.0417 144.864C90.9775 144.878 90.9182 144.873 90.8802 144.872C90.8421 144.872 90.802 144.889 90.7594 144.881C90.7169 144.872 90.6202 144.884 90.5503 144.884C90.53 144.893 90.5082 144.897 90.4861 144.898C90.4135 144.913 90.3351 144.901 90.2652 144.901C90.1953 144.901 90.1226 144.902 90.0555 144.902C90.0344 144.908 90.013 144.912 89.9913 144.915C89.9578 144.922 89.9175 144.911 89.8822 144.909C89.7379 144.902 89.6053 144.896 89.49 144.888L89.4425 144.884C89.4146 144.89 89.3838 144.896 89.3507 144.877C89.3176 144.858 89.255 144.866 89.2096 144.858C86.9155 144.732 84.7267 143.879 82.9667 142.425C82.3647 141.945 81.8047 141.415 81.2925 140.841C77.4378 136.791 76.1921 130.869 78.3969 125.691C79.5233 122.509 82.0143 120.216 85.0364 118.992C88.1161 118.056 91.1432 118.284 94.1282 118.339C95.0029 118.339 95.8787 118.345 96.7778 118.338C102.973 118.314 109.254 117.987 114.571 114.41C115.403 113.851 116.179 113.213 116.887 112.505C117.512 111.899 118.068 111.227 118.547 110.502C118.938 109.865 119.149 109.137 119.158 108.394C119.413 109.005 119.569 109.653 119.621 110.313C119.663 111.042 119.597 111.774 119.424 112.484C119.044 114.446 118.361 116.339 117.398 118.097C116.941 118.939 116.416 119.744 115.829 120.505C111.833 126.051 105.547 127.057 99.3381 126.919C98.3105 126.893 97.2798 126.839 96.2461 126.757C93.4176 126.338 90.6711 126.031 88.8027 128.484C87.4801 130.22 88.2731 133.782 90.4466 134.913C91.4931 135.453 93.2092 135.574 94.357 134.517C95.5047 133.46 95.7203 131.533 94.7217 129.959C95.5688 129.078 96.6498 128.451 97.8394 128.151C98.5709 127.924 99.3472 127.88 100.098 128.024C102.904 128.612 104.924 131.132 106.825 133.09C105.674 131.859 103.485 129.963 102.011 131.451C100.887 133.146 100.781 135.525 100.076 137.477C99.9755 137.95 99.8395 138.415 99.6685 138.868C99.5178 139.268 99.3384 139.656 99.1316 140.03C98.9975 140.268 98.8515 140.499 98.6941 140.722C97.9682 141.739 97.0694 142.624 96.0378 143.338C94.7958 144.144 93.3739 144.638 91.8972 144.774Z" fill="#EEB953"/>
</g>
<g filter="url(#filter2_d)">
<path fill-rule="evenodd" clip-rule="evenodd" d="M127.487 94.849H162.154V117.897H162.146C161.562 132.417 129.054 144.123 89.0381 144.123C49.0218 144.123 16.5138 132.417 15.9299 117.897H15.922V117.542C15.9219 117.527 15.9219 117.513 15.9219 117.499C15.9219 117.485 15.9219 117.47 15.922 117.456V94.849H50.5893C61.7597 92.3295 74.9324 90.875 89.0381 90.875C103.144 90.875 116.316 92.3295 127.487 94.849Z" fill="url(#paint3_linear)"/>
<ellipse cx="89.0381" cy="95.2469" rx="73.1162" ry="26.6238" fill="url(#paint4_linear)"/>
<ellipse cx="89.0381" cy="95.2469" rx="73.1162" ry="26.6238" fill="url(#paint5_linear)"/>
<g filter="url(#filter3_i)">
<ellipse cx="89.4355" cy="95.2458" rx="64.7714" ry="22.6501" fill="#EEB953"/>
</g>
<g filter="url(#filter4_i)">
<path d="M83.948 112.985C83.7163 113.033 83.486 113.047 83.268 113.064C83.1787 113.083 83.0925 113.075 83.0925 113.075C83.0283 113.089 82.969 113.084 82.9309 113.083C82.8929 113.083 82.8528 113.1 82.8102 113.091C82.7676 113.083 82.671 113.095 82.6011 113.095C82.5808 113.104 82.5589 113.108 82.5369 113.109C82.4643 113.124 82.3859 113.112 82.316 113.112C82.2461 113.112 82.1734 113.113 82.1063 113.113C82.0852 113.119 82.0638 113.123 82.0421 113.126C82.0086 113.133 81.9682 113.122 81.933 113.12C81.7887 113.113 81.6561 113.107 81.5408 113.099L81.4933 113.095C81.4653 113.101 81.4346 113.107 81.4015 113.088C81.3683 113.069 81.3058 113.077 81.2604 113.069C78.9663 112.943 76.7774 112.09 75.0175 110.636C74.4155 110.155 73.8554 109.626 73.3433 109.052C69.4886 105.002 68.2429 99.08 70.4477 93.902C71.574 90.7201 74.065 88.4268 77.0872 87.2032C80.1669 86.2672 83.194 86.4948 86.179 86.5498C87.0537 86.5502 87.9294 86.5562 88.8286 86.5485C95.0241 86.5246 101.304 86.1975 106.621 82.6211C107.454 82.0622 108.23 81.4242 108.938 80.7161C109.562 80.1095 110.119 79.4378 110.598 78.7129C110.989 78.0764 111.2 77.3481 111.209 76.6046C111.464 77.2162 111.62 77.864 111.671 78.5244C111.714 79.2531 111.648 79.9845 111.475 80.6952C111.095 82.6567 110.412 84.55 109.449 86.3081C108.991 87.1503 108.467 87.9554 107.88 88.7158C103.884 94.262 97.5979 95.2674 91.3889 95.13C90.3612 95.1041 89.3305 95.0501 88.2968 94.9679C85.4684 94.5486 82.7219 94.2417 80.8535 96.6951C79.5309 98.4314 80.3239 101.993 82.4974 103.124C83.5439 103.664 85.26 103.785 86.4078 102.728C87.5555 101.671 87.7711 99.7437 86.7725 98.1701C87.6196 97.2888 88.7006 96.6618 89.8902 96.3616C90.6217 96.1345 91.398 96.0911 92.149 96.2351C94.9547 96.8234 96.9745 99.3434 98.8758 101.301C97.725 100.07 95.5361 98.1735 94.0623 99.6621C92.9379 101.357 92.8321 103.736 92.1263 105.688C92.0263 106.161 91.8903 106.626 91.7193 107.079C91.5686 107.479 91.3891 107.867 91.1824 108.241C91.0483 108.479 90.9022 108.709 90.7448 108.933C90.019 109.95 89.1202 110.835 88.0886 111.549C86.8466 112.355 85.4247 112.848 83.948 112.985Z" fill="#EEB953"/>
</g>
</g>
<g filter="url(#filter5_d)">
<path fill-rule="evenodd" clip-rule="evenodd" d="M149.439 82.5301V82.9275H149.431C148.848 97.4482 116.34 109.154 76.3232 109.154C36.3067 109.154 3.79845 97.4482 3.21501 82.9275H3.20703V82.5301V59.88H37.8759C49.0459 57.3606 62.2182 55.9062 76.3232 55.9062C90.4283 55.9062 103.601 57.3606 114.771 59.88H149.439V82.5301Z" fill="url(#paint6_linear)"/>
<ellipse cx="76.3232" cy="60.2781" rx="73.1162" ry="26.6238" fill="url(#paint7_linear)"/>
<ellipse cx="76.3232" cy="60.2781" rx="73.1162" ry="26.6238" fill="url(#paint8_linear)"/>
<g filter="url(#filter6_i)">
<ellipse cx="76.7206" cy="60.279" rx="64.7714" ry="22.6501" fill="#EEB953"/>
</g>
<g filter="url(#filter7_i)">
<path d="M71.2331 78.0159C71.0014 78.0646 70.7711 78.0785 70.5532 78.0955C70.4638 78.1143 70.3776 78.1065 70.3776 78.1065C70.3134 78.12 70.2541 78.1152 70.2161 78.1146C70.1781 78.1139 70.1379 78.131 70.0954 78.1227C70.0528 78.1144 69.9561 78.126 69.8862 78.1263C69.8659 78.135 69.8441 78.1396 69.822 78.1399C69.7494 78.1551 69.6711 78.1428 69.6012 78.1431C69.5313 78.1434 69.4586 78.1443 69.3915 78.144C69.3703 78.1498 69.3489 78.1543 69.3273 78.1575C69.2938 78.1645 69.2534 78.1529 69.2182 78.1516C69.0738 78.1445 68.9412 78.1378 68.826 78.1304L68.7784 78.126C68.7505 78.1319 68.7198 78.1383 68.6866 78.1194C68.6535 78.1004 68.5909 78.1078 68.5456 78.1001C66.2515 77.9746 64.0626 77.1216 62.3027 75.6674C61.7006 75.1867 61.1406 74.6568 60.6284 74.0832C56.7738 70.0329 55.528 64.1112 57.7328 58.9332C58.8592 55.7513 61.3502 53.4581 64.3723 52.2345C67.452 51.2984 70.4792 51.5261 73.4642 51.581C74.3388 51.5815 75.2146 51.5874 76.1138 51.5798C82.3092 51.5558 88.5896 51.2288 93.9065 47.6523C94.7393 47.0934 95.515 46.4554 96.2227 45.7473C96.8474 45.1407 97.404 44.4691 97.8827 43.7441C98.274 43.1076 98.4854 42.3793 98.4944 41.6358C98.7491 42.2474 98.9051 42.8953 98.9566 43.5557C98.9989 44.2844 98.9327 45.0158 98.7603 45.7264C98.3802 47.688 97.6969 49.5812 96.7344 51.3394C96.2766 52.1815 95.7519 52.9866 95.1653 53.747C91.1694 59.2932 84.8831 60.2987 78.6741 60.1612C77.6464 60.1354 76.6157 60.0813 75.582 59.9991C72.7536 59.5798 70.0071 59.273 68.1386 61.7263C66.816 63.4626 67.609 67.0245 69.7825 68.155C70.8291 68.6956 72.5451 68.8158 73.6929 67.7588C74.8407 66.7019 75.0562 64.7749 74.0576 63.2013C74.9048 62.3201 75.9857 61.693 77.1753 61.3928C77.9069 61.1658 78.6832 61.1223 79.4342 61.2663C82.2399 61.8546 84.2596 64.3747 86.161 66.3318C85.0101 65.1014 82.8213 63.2048 81.3474 64.6934C80.223 66.388 80.1172 68.7673 79.4114 70.7197C79.3115 71.1927 79.1754 71.6577 79.0044 72.1106C78.8537 72.51 78.6743 72.8982 78.4676 73.2724C78.3334 73.5099 78.1874 73.7407 78.03 73.9638C77.3042 74.9813 76.4053 75.8666 75.3737 76.5801C74.1317 77.3867 72.7098 77.8797 71.2331 78.0159Z" fill="#EEB953"/>
</g>
</g>
<g filter="url(#filter8_d)">
<path fill-rule="evenodd" clip-rule="evenodd" d="M166.129 49.2777C166.129 49.2356 166.13 49.1934 166.13 49.1512C166.13 49.109 166.129 49.0668 166.129 49.0246V26.5013H131.462C120.292 23.9818 107.119 22.5273 93.0135 22.5273C78.908 22.5273 65.7354 23.9818 54.5651 26.5013H19.8965V49.5488H19.9053C20.489 64.0694 52.9971 75.775 93.0135 75.775C133.03 75.775 165.538 64.0694 166.122 49.5488H166.129V49.2777Z" fill="url(#paint9_linear)"/>
<ellipse cx="93.0127" cy="26.8992" rx="73.1162" ry="26.6238" fill="url(#paint10_linear)"/>
<ellipse cx="93.0127" cy="26.8992" rx="73.1162" ry="26.6238" fill="url(#paint11_linear)"/>
<g filter="url(#filter9_i)">
<ellipse cx="93.4101" cy="26.9001" rx="64.7714" ry="22.6501" fill="#EEB953"/>
</g>
<g filter="url(#filter10_i)">
<path d="M87.9226 44.637C87.6909 44.6857 87.4606 44.6996 87.2426 44.7166C87.1533 44.7354 87.0671 44.7276 87.0671 44.7276C87.0029 44.7411 86.9436 44.7363 86.9055 44.7357C86.8675 44.735 86.8274 44.7521 86.7848 44.7438C86.7422 44.7355 86.6456 44.7471 86.5757 44.7474C86.5554 44.7561 86.5336 44.7607 86.5115 44.7609C86.4389 44.7762 86.3605 44.7639 86.2906 44.7642C86.2207 44.7645 86.148 44.7654 86.0809 44.7651C86.0598 44.7709 86.0384 44.7754 86.0167 44.7786C85.9832 44.7856 85.9429 44.774 85.9076 44.7727C85.7633 44.7656 85.6307 44.7589 85.5154 44.7515L85.4679 44.7471C85.4399 44.753 85.4092 44.7594 85.3761 44.7405C85.343 44.7215 85.2804 44.7289 85.235 44.7212C82.9409 44.5956 80.752 43.7427 78.9921 42.2885C78.3901 41.8078 77.83 41.2779 77.3179 40.7043C73.4632 36.654 72.2175 30.7323 74.4223 25.5543C75.5487 22.3724 78.0397 20.0791 81.0618 18.8556C84.1415 17.9195 87.1686 18.1472 90.1536 18.2021C91.0283 18.2026 91.9041 18.2085 92.8032 18.2009C98.9987 18.1769 105.279 17.8499 110.596 14.2734C111.429 13.7145 112.204 13.0765 112.912 12.3684C113.537 11.7618 114.093 11.0902 114.572 10.3652C114.963 9.7287 115.175 9.00041 115.184 8.25691C115.439 8.86853 115.595 9.51636 115.646 10.1768C115.688 10.9055 115.622 11.6368 115.45 12.3475C115.07 14.3091 114.386 16.2023 113.424 17.9605C112.966 18.8026 112.441 19.6077 111.855 20.3681C107.859 25.9143 101.573 26.9198 95.3635 26.7823C94.3358 26.7565 93.3051 26.7024 92.2714 26.6202C89.443 26.2009 86.6965 25.8941 84.8281 28.3474C83.5055 30.0837 84.2985 33.6456 86.472 34.7761C87.5185 35.3167 89.2346 35.4369 90.3824 34.3799C91.5301 33.323 91.7457 31.396 90.7471 29.8224C91.5942 28.9411 92.6752 28.3141 93.8648 28.0139C94.5963 27.7869 95.3726 27.7434 96.1236 27.8874C98.9293 28.4757 100.949 30.9958 102.85 32.9529C101.7 31.7225 99.5107 29.8259 98.0369 31.3145C96.9125 33.0091 96.8067 35.3884 96.1009 37.3408C96.0009 37.8138 95.8649 38.2787 95.6939 38.7317C95.5432 39.131 95.3638 39.5193 95.157 39.8935C95.0229 40.131 94.8768 40.3618 94.7195 40.5849C93.9936 41.6024 93.0948 42.4877 92.0632 43.2012C90.8212 44.0077 89.3993 44.5008 87.9226 44.637Z" fill="#EEB953"/>
</g>
</g>
<defs>
<filter id="filter0_i" x="32.6113" y="104.387" width="131.927" height="47.6845" filterUnits="userSpaceOnUse" color-interpolation-filters="sRGB">
<feFlood flood-opacity="0" result="BackgroundImageFix"/>
<feBlend mode="normal" in="SourceGraphic" in2="BackgroundImageFix" result="shape"/>
<feColorMatrix in="SourceAlpha" type="matrix" values="0 0 0 0 0 0 0 0 0 0 0 0 0 0 0 0 0 0 127 0" result="hardAlpha"/>
<feOffset dx="3.17897" dy="3.17897"/>
<feGaussianBlur stdDeviation="1.19211"/>
<feComposite in2="hardAlpha" operator="arithmetic" k2="-1" k3="1"/>
<feColorMatrix type="matrix" values="0 0 0 0 0.191892 0 0 0 0 0.024627 0 0 0 0 0.024627 0 0 0 0.52 0"/>
<feBlend mode="normal" in2="shape" result="effect1_innerShadow"/>
</filter>
<filter id="filter1_i" x="71.8541" y="108.371" width="53.5982" height="42.0574" filterUnits="userSpaceOnUse" color-interpolation-filters="sRGB">
<feFlood flood-opacity="0" result="BackgroundImageFix"/>
<feBlend mode="normal" in="SourceGraphic" in2="BackgroundImageFix" result="shape"/>
<feColorMatrix in="SourceAlpha" type="matrix" values="0 0 0 0 0 0 0 0 0 0 0 0 0 0 0 0 0 0 127 0" result="hardAlpha"/>
<feOffset dx="-2.38422" dy="3.17897"/>
<feGaussianBlur stdDeviation="1.58948"/>
<feComposite in2="hardAlpha" operator="arithmetic" k2="-1" k3="1"/>
<feColorMatrix type="matrix" values="0 0 0 0 0.48776 0 0 0 0 0.347944 0 0 0 0 0.0788626 0 0 0 1 0"/>
<feBlend mode="normal" in2="shape" result="effect1_innerShadow"/>
</filter>
<filter id="filter2_d" x="12.7429" y="68.623" width="152.59" height="81.8575" filterUnits="userSpaceOnUse" color-interpolation-filters="sRGB">
<feFlood flood-opacity="0" result="BackgroundImageFix"/>
<feColorMatrix in="SourceAlpha" type="matrix" values="0 0 0 0 0 0 0 0 0 0 0 0 0 0 0 0 0 0 127 0" result="hardAlpha"/>
<feOffset dy="3.17897"/>
<feGaussianBlur stdDeviation="1.58948"/>
<feColorMatrix type="matrix" values="0 0 0 0 0 0 0 0 0 0 0 0 0 0 0 0 0 0 0.25 0"/>
<feBlend mode="normal" in2="BackgroundImageFix" result="effect1_dropShadow"/>
<feBlend mode="normal" in="SourceGraphic" in2="effect1_dropShadow" result="shape"/>
</filter>
<filter id="filter3_i" x="24.6641" y="72.5957" width="131.927" height="47.6845" filterUnits="userSpaceOnUse" color-interpolation-filters="sRGB">
<feFlood flood-opacity="0" result="BackgroundImageFix"/>
<feBlend mode="normal" in="SourceGraphic" in2="BackgroundImageFix" result="shape"/>
<feColorMatrix in="SourceAlpha" type="matrix" values="0 0 0 0 0 0 0 0 0 0 0 0 0 0 0 0 0 0 127 0" result="hardAlpha"/>
<feOffset dx="3.17897" dy="3.17897"/>
<feGaussianBlur stdDeviation="1.19211"/>
<feComposite in2="hardAlpha" operator="arithmetic" k2="-1" k3="1"/>
<feColorMatrix type="matrix" values="0 0 0 0 0.191892 0 0 0 0 0.024627 0 0 0 0 0.024627 0 0 0 0.52 0"/>
<feBlend mode="normal" in2="shape" result="effect1_innerShadow"/>
</filter>
<filter id="filter4_i" x="63.9048" y="76.582" width="53.5982" height="42.0574" filterUnits="userSpaceOnUse" color-interpolation-filters="sRGB">
<feFlood flood-opacity="0" result="BackgroundImageFix"/>
<feBlend mode="normal" in="SourceGraphic" in2="BackgroundImageFix" result="shape"/>
<feColorMatrix in="SourceAlpha" type="matrix" values="0 0 0 0 0 0 0 0 0 0 0 0 0 0 0 0 0 0 127 0" result="hardAlpha"/>
<feOffset dx="-2.38422" dy="3.17897"/>
<feGaussianBlur stdDeviation="1.58948"/>
<feComposite in2="hardAlpha" operator="arithmetic" k2="-1" k3="1"/>
<feColorMatrix type="matrix" values="0 0 0 0 0.48776 0 0 0 0 0.347944 0 0 0 0 0.0788626 0 0 0 1 0"/>
<feBlend mode="normal" in2="shape" result="effect1_innerShadow"/>
</filter>
<filter id="filter5_d" x="0.0280662" y="33.6543" width="152.59" height="81.8575" filterUnits="userSpaceOnUse" color-interpolation-filters="sRGB">
<feFlood flood-opacity="0" result="BackgroundImageFix"/>
<feColorMatrix in="SourceAlpha" type="matrix" values="0 0 0 0 0 0 0 0 0 0 0 0 0 0 0 0 0 0 127 0" result="hardAlpha"/>
<feOffset dy="3.17897"/>
<feGaussianBlur stdDeviation="1.58948"/>
<feColorMatrix type="matrix" values="0 0 0 0 0 0 0 0 0 0 0 0 0 0 0 0 0 0 0.25 0"/>
<feBlend mode="normal" in2="BackgroundImageFix" result="effect1_dropShadow"/>
<feBlend mode="normal" in="SourceGraphic" in2="effect1_dropShadow" result="shape"/>
</filter>
<filter id="filter6_i" x="11.9492" y="37.6289" width="131.927" height="47.6845" filterUnits="userSpaceOnUse" color-interpolation-filters="sRGB">
<feFlood flood-opacity="0" result="BackgroundImageFix"/>
<feBlend mode="normal" in="SourceGraphic" in2="BackgroundImageFix" result="shape"/>
<feColorMatrix in="SourceAlpha" type="matrix" values="0 0 0 0 0 0 0 0 0 0 0 0 0 0 0 0 0 0 127 0" result="hardAlpha"/>
<feOffset dx="3.17897" dy="3.17897"/>
<feGaussianBlur stdDeviation="1.19211"/>
<feComposite in2="hardAlpha" operator="arithmetic" k2="-1" k3="1"/>
<feColorMatrix type="matrix" values="0 0 0 0 0.191892 0 0 0 0 0.024627 0 0 0 0 0.024627 0 0 0 0.52 0"/>
<feBlend mode="normal" in2="shape" result="effect1_innerShadow"/>
</filter>
<filter id="filter7_i" x="51.19" y="41.6133" width="53.5982" height="42.0574" filterUnits="userSpaceOnUse" color-interpolation-filters="sRGB">
<feFlood flood-opacity="0" result="BackgroundImageFix"/>
<feBlend mode="normal" in="SourceGraphic" in2="BackgroundImageFix" result="shape"/>
<feColorMatrix in="SourceAlpha" type="matrix" values="0 0 0 0 0 0 0 0 0 0 0 0 0 0 0 0 0 0 127 0" result="hardAlpha"/>
<feOffset dx="-2.38422" dy="3.17897"/>
<feGaussianBlur stdDeviation="1.58948"/>
<feComposite in2="hardAlpha" operator="arithmetic" k2="-1" k3="1"/>
<feColorMatrix type="matrix" values="0 0 0 0 0.48776 0 0 0 0 0.347944 0 0 0 0 0.0788626 0 0 0 1 0"/>
<feBlend mode="normal" in2="shape" result="effect1_innerShadow"/>
</filter>
<filter id="filter8_d" x="16.7175" y="0.275391" width="152.591" height="81.8575" filterUnits="userSpaceOnUse" color-interpolation-filters="sRGB">
<feFlood flood-opacity="0" result="BackgroundImageFix"/>
<feColorMatrix in="SourceAlpha" type="matrix" values="0 0 0 0 0 0 0 0 0 0 0 0 0 0 0 0 0 0 127 0" result="hardAlpha"/>
<feOffset dy="3.17897"/>
<feGaussianBlur stdDeviation="1.58948"/>
<feColorMatrix type="matrix" values="0 0 0 0 0 0 0 0 0 0 0 0 0 0 0 0 0 0 0.25 0"/>
<feBlend mode="normal" in2="BackgroundImageFix" result="effect1_dropShadow"/>
<feBlend mode="normal" in="SourceGraphic" in2="effect1_dropShadow" result="shape"/>
</filter>
<filter id="filter9_i" x="28.6387" y="4.25" width="131.927" height="47.6845" filterUnits="userSpaceOnUse" color-interpolation-filters="sRGB">
<feFlood flood-opacity="0" result="BackgroundImageFix"/>
<feBlend mode="normal" in="SourceGraphic" in2="BackgroundImageFix" result="shape"/>
<feColorMatrix in="SourceAlpha" type="matrix" values="0 0 0 0 0 0 0 0 0 0 0 0 0 0 0 0 0 0 127 0" result="hardAlpha"/>
<feOffset dx="3.17897" dy="3.17897"/>
<feGaussianBlur stdDeviation="1.19211"/>
<feComposite in2="hardAlpha" operator="arithmetic" k2="-1" k3="1"/>
<feColorMatrix type="matrix" values="0 0 0 0 0.191892 0 0 0 0 0.024627 0 0 0 0 0.024627 0 0 0 0.52 0"/>
<feBlend mode="normal" in2="shape" result="effect1_innerShadow"/>
</filter>
<filter id="filter10_i" x="67.8794" y="8.23438" width="53.5982" height="42.0574" filterUnits="userSpaceOnUse" color-interpolation-filters="sRGB">
<feFlood flood-opacity="0" result="BackgroundImageFix"/>
<feBlend mode="normal" in="SourceGraphic" in2="BackgroundImageFix" result="shape"/>
<feColorMatrix in="SourceAlpha" type="matrix" values="0 0 0 0 0 0 0 0 0 0 0 0 0 0 0 0 0 0 127 0" result="hardAlpha"/>
<feOffset dx="-2.38422" dy="3.17897"/>
<feGaussianBlur stdDeviation="1.58948"/>
<feComposite in2="hardAlpha" operator="arithmetic" k2="-1" k3="1"/>
<feColorMatrix type="matrix" values="0 0 0 0 0.48776 0 0 0 0 0.347944 0 0 0 0 0.0788626 0 0 0 1 0"/>
<feBlend mode="normal" in2="shape" result="effect1_innerShadow"/>
</filter>
<linearGradient id="paint0_linear" x1="36.585" y1="156.838" x2="170.102" y2="149.685" gradientUnits="userSpaceOnUse">
<stop stop-color="#FDF876"/>
<stop offset="0.230201" stop-color="#935A07"/>
<stop offset="0.698979" stop-color="#FFA07B"/>
<stop offset="1" stop-color="#FDFF99"/>
</linearGradient>
<linearGradient id="paint1_linear" x1="96.9853" y1="100.412" x2="96.9853" y2="153.66" gradientUnits="userSpaceOnUse">
<stop stop-color="#E1A020"/>
<stop offset="1" stop-color="#EF5133"/>
</linearGradient>
<linearGradient id="paint2_linear" x1="96.9853" y1="100.412" x2="158.578" y2="127.433" gradientUnits="userSpaceOnUse">
<stop stop-color="#FBBE49"/>
<stop offset="1" stop-color="#FFC047"/>
</linearGradient>
<linearGradient id="paint3_linear" x1="28.6377" y1="125.049" x2="162.154" y2="117.896" gradientUnits="userSpaceOnUse">
<stop stop-color="#FDF876"/>
<stop offset="0.230201" stop-color="#935A07"/>
<stop offset="0.698979" stop-color="#FFA07B"/>
<stop offset="1" stop-color="#FDFF99"/>
</linearGradient>
<linearGradient id="paint4_linear" x1="89.0381" y1="68.623" x2="89.0381" y2="121.871" gradientUnits="userSpaceOnUse">
<stop stop-color="#E1A020"/>
<stop offset="1" stop-color="#EF5133"/>
</linearGradient>
<linearGradient id="paint5_linear" x1="89.0381" y1="68.623" x2="150.631" y2="95.6443" gradientUnits="userSpaceOnUse">
<stop stop-color="#FBBE49"/>
<stop offset="1" stop-color="#FFC047"/>
</linearGradient>
<linearGradient id="paint6_linear" x1="15.9229" y1="90.0801" x2="149.439" y2="82.9275" gradientUnits="userSpaceOnUse">
<stop stop-color="#FDF876"/>
<stop offset="0.230201" stop-color="#935A07"/>
<stop offset="0.698979" stop-color="#FFA07B"/>
<stop offset="1" stop-color="#FDFF99"/>
</linearGradient>
<linearGradient id="paint7_linear" x1="76.3232" y1="33.6543" x2="76.3232" y2="86.902" gradientUnits="userSpaceOnUse">
<stop stop-color="#E1A020"/>
<stop offset="1" stop-color="#EF5133"/>
</linearGradient>
<linearGradient id="paint8_linear" x1="76.3232" y1="33.6543" x2="137.916" y2="60.6755" gradientUnits="userSpaceOnUse">
<stop stop-color="#FBBE49"/>
<stop offset="1" stop-color="#FFC047"/>
</linearGradient>
<linearGradient id="paint9_linear" x1="32.6124" y1="56.7012" x2="166.13" y2="49.5485" gradientUnits="userSpaceOnUse">
<stop stop-color="#FDF876"/>
<stop offset="0.230201" stop-color="#935A07"/>
<stop offset="0.698979" stop-color="#FFA07B"/>
<stop offset="1" stop-color="#FDFF99"/>
</linearGradient>
<linearGradient id="paint10_linear" x1="93.0127" y1="0.275391" x2="93.0127" y2="53.5231" gradientUnits="userSpaceOnUse">
<stop stop-color="#E1A020"/>
<stop offset="1" stop-color="#EF5133"/>
</linearGradient>
<linearGradient id="paint11_linear" x1="93.0127" y1="0.275391" x2="154.605" y2="27.2966" gradientUnits="userSpaceOnUse">
<stop stop-color="#FBBE49"/>
<stop offset="1" stop-color="#FFC047"/>
</linearGradient>
</defs>
</svg>
